<svg width="40" height="40" viewBox="0 0 40 40" fill="none" xmlns="http://www.w3.org/2000/svg">
<path d="M16.9229 1.57139C18.9036 0.809536 21.0964 0.809536 23.0771 1.57139L37.2543 7.02282C38.9086 7.65996 40 9.25139 40 11.0228V29.9542C40.0001 30.8203 39.7378 31.6661 39.2477 32.3802C38.7575 33.0942 38.0625 33.643 37.2543 33.9542L23.0771 39.4085C21.0964 40.1704 18.9036 40.1704 16.9229 39.4085L2.74857 33.9542C1.93979 33.6435 1.2442 33.0949 0.753517 32.3808C0.262836 31.6667 0.000114693 30.8207 0 29.9542V11.0228C0.000114693 10.1564 0.262836 9.31035 0.753517 8.59626C1.2442 7.88218 1.93979 7.33358 2.74857 7.02282L16.9229 1.57139V1.57139ZM22.0514 4.23711C20.731 3.7292 19.269 3.7292 17.9486 4.23711L13.9943 5.75996L29.9657 11.8057L35.5314 9.42282L22.0514 4.23711V4.23711ZM37.1429 11.8371L21.4286 18.5742V36.94C21.64 36.8857 21.8457 36.82 22.0514 36.74L36.2286 31.2885C36.498 31.1846 36.7295 31.0014 36.8927 30.7632C37.056 30.5251 37.1432 30.243 37.1429 29.9542V11.84V11.8371ZM18.5714 36.94V18.5742L2.85714 11.84V29.9542C2.85684 30.243 2.94404 30.5251 3.10726 30.7632C3.27048 31.0014 3.50204 31.1846 3.77143 31.2885L17.9486 36.74C18.1543 36.82 18.36 36.8857 18.5714 36.94ZM4.46857 9.42282L20 16.08L26.1829 13.4285L9.99143 7.29711L4.46857 9.42282Z" fill="black"/>
</svg>
