<svg width="40" height="40" viewBox="0 0 40 40" fill="none" xmlns="http://www.w3.org/2000/svg">
<path d="M12.51 14C14.442 14 16.01 15.566 16.01 17.5V36.5C16.01 37.4283 15.6413 38.3185 14.9849 38.9749C14.3285 39.6312 13.4383 40 12.51 40H3.5C2.57174 40 1.6815 39.6312 1.02513 38.9749C0.368749 38.3185 0 37.4283 0 36.5V17.5C0 15.566 1.568 14 3.5 14H12.51V14ZM12.51 17H3.5C3.36739 17 3.24021 17.0527 3.14645 17.1464C3.05268 17.2402 3 17.3674 3 17.5V36.5C3 36.776 3.224 37 3.5 37H12.51C12.6426 37 12.7698 36.9473 12.8636 36.8536C12.9573 36.7598 13.01 36.6326 13.01 36.5V17.5C13.01 17.3674 12.9573 17.2402 12.8636 17.1464C12.7698 17.0527 12.6426 17 12.51 17V17ZM8.5 32C8.88005 32.0001 9.24588 32.1445 9.52358 32.4039C9.80128 32.6634 9.97015 33.0186 9.99605 33.3978C10.022 33.7769 9.90297 34.1518 9.66313 34.4466C9.4233 34.7414 9.0805 34.9342 8.704 34.986L8.5 35H7.5C7.11995 34.9999 6.75412 34.8555 6.47642 34.5961C6.19872 34.3366 6.02985 33.9814 6.00395 33.6022C5.97804 33.2231 6.09703 32.8482 6.33687 32.5534C6.5767 32.2586 6.9195 32.0658 7.296 32.014L7.5 32H8.5ZM35.5 3.39974e-08C36.6403 -0.000140044 37.738 0.432591 38.5715 1.21074C39.405 1.98889 39.912 3.05442 39.99 4.192L40 4.5V22.5C40.0001 23.6403 39.5674 24.738 38.7893 25.5715C38.0111 26.405 36.9456 26.912 35.808 26.99L35.5 27H28.008V31H30.5C30.88 31.0001 31.2459 31.1445 31.5236 31.4039C31.8013 31.6634 31.9701 32.0186 31.9961 32.3978C32.022 32.7769 31.903 33.1518 31.6631 33.4466C31.4233 33.7414 31.0805 33.9342 30.704 33.986L30.5 34H18V31H25.008V27H18V24H35.5C35.8625 24 36.2127 23.8687 36.4859 23.6305C36.759 23.3922 36.9367 23.0631 36.986 22.704L37 22.5V4.5C37 4.10218 36.842 3.72064 36.5607 3.43934C36.2794 3.15804 35.8978 3 35.5 3H8.5C8.13752 3.00002 7.78732 3.13129 7.51414 3.36953C7.24096 3.60778 7.0633 3.93689 7.014 4.296L7 4.5V12H4V4.5C3.99986 3.35975 4.43259 2.26196 5.21074 1.42849C5.98889 0.595029 7.05442 0.0880442 8.192 0.0100003L8.5 3.39974e-08H35.5Z" fill="black"/>
</svg>
