<svg width="70" height="70" viewBox="0 0 70 70" fill="none" xmlns="http://www.w3.org/2000/svg">
<path d="M11.375 7H58.625C61.5305 6.99981 64.3259 8.11144 66.4378 10.1069C68.5497 12.1023 69.818 14.8302 69.9825 17.731L70 18.375V51.625C70.0002 54.5305 68.8886 57.3259 66.8931 59.4378C64.8977 61.5497 62.1698 62.818 59.269 62.9825L58.625 63H11.375C8.46952 63.0002 5.6741 61.8886 3.56219 59.8931C1.45028 57.8977 0.181995 55.1698 0.0175004 52.269L2.44131e-08 51.625V18.375C-0.000190214 15.4695 1.11144 12.6741 3.10685 10.5622C5.10226 8.45028 7.83018 7.182 10.731 7.0175L11.375 7H58.625H11.375ZM64.75 25.8055L36.225 40.8205C35.9029 40.9906 35.5489 41.0919 35.1856 41.1178C34.8222 41.1437 34.4575 41.0937 34.1145 40.971L33.7785 40.824L5.25 25.809V51.625C5.25006 53.1622 5.8281 54.6431 6.86938 55.7739C7.91066 56.9046 9.33905 57.6025 10.871 57.729L11.375 57.75H58.625C60.1627 57.7499 61.6441 57.1713 62.775 56.1293C63.9058 55.0873 64.6033 53.6581 64.729 52.1255L64.75 51.625V25.8055ZM58.625 12.25H11.375C9.83784 12.2501 8.35689 12.8281 7.22613 13.8694C6.09538 14.9107 5.39749 16.339 5.271 17.871L5.25 18.375V19.8765L35 35.532L64.75 19.873V18.375C64.7499 16.8373 64.1713 15.3559 63.1293 14.225C62.0873 13.0942 60.6581 12.3967 59.1255 12.271L58.625 12.25Z" fill="black"/>
</svg>
