<svg width="55" height="70" viewBox="0 0 55 70" fill="none" xmlns="http://www.w3.org/2000/svg">
<path d="M5.42514 20.3033C4.41657 13.6605 9.10036 7.69353 16.2554 5.5074C17.5251 5.11919 18.8951 5.2297 20.0862 5.81641C21.2773 6.40312 22.1999 7.42189 22.6659 8.66514L24.963 14.7905C25.3327 15.7759 25.3996 16.8493 25.155 17.873C24.9103 18.8967 24.3654 19.8239 23.59 20.5357L16.7571 26.7931C16.4203 27.1021 16.1693 27.4932 16.0286 27.9282C15.888 28.3631 15.8624 28.8271 15.9544 29.2749L16.0178 29.5495L16.1815 30.2359C17.0313 33.5713 18.326 36.7772 20.031 39.7672C21.8882 42.9445 24.193 45.8379 26.8745 48.3586L27.0857 48.5487C27.4268 48.8515 27.8406 49.0607 28.2866 49.156C28.7327 49.2513 29.1958 49.2295 29.6309 49.0926L38.4652 46.3097C39.4691 45.9945 40.5444 45.9865 41.553 46.2866C42.5616 46.5867 43.4576 47.1814 44.1259 47.9942L48.308 53.0688C50.0506 55.181 49.8393 58.2859 47.838 60.1499C42.3622 65.2561 34.8322 66.3017 29.5939 62.0931C23.173 56.9138 17.7601 50.597 13.6257 43.4583C9.4578 36.3251 6.67377 28.4692 5.41986 20.3033H5.42514ZM21.4937 29.6234L27.1544 24.4274C28.706 23.0045 29.7969 21.1503 30.2871 19.1029C30.7773 17.0556 30.6444 14.9084 29.9055 12.9371L27.6138 6.81169C26.6756 4.31004 24.819 2.26022 22.4221 1.07992C20.0252 -0.100384 17.2684 -0.322348 14.7135 0.459257C5.82646 3.17871 -1.30748 11.147 0.202739 21.1007C1.25884 28.0498 3.69314 36.8894 9.0634 46.1196C13.5239 53.817 19.3628 60.6278 26.2884 66.2119C34.1457 72.5221 44.6328 70.3676 51.4446 64.0205C55.4895 60.2502 55.9013 53.9876 52.3898 49.7209L48.2077 44.6411C46.8698 43.0173 45.0774 41.83 43.0602 41.2317C41.0431 40.6333 38.8932 40.6511 36.8863 41.2827L29.5517 43.5903C27.658 41.6377 25.9992 39.4703 24.6092 37.1323C23.2665 34.7685 22.2201 32.2483 21.4937 29.6287V29.6234Z" fill="black"/>
</svg>
