<svg width="40" height="40" viewBox="0 0 40 40" fill="none" xmlns="http://www.w3.org/2000/svg">
<g clip-path="url(#clip0)">
<path d="M40 7.69231C40 5.65218 39.1896 3.69561 37.747 2.25302C36.3044 0.810437 34.3478 0 32.3077 0H10.7692C8.7291 0 6.77253 0.810437 5.32995 2.25302C3.88736 3.69561 3.07692 5.65218 3.07692 7.69231V11.5631C5.35238 10.0387 8.03036 9.22675 10.7692 9.23077C14.0677 9.23077 17.0954 10.3846 19.4738 12.3077H36.9231V29.2308C36.9231 30.4548 36.4368 31.6288 35.5713 32.4943C34.7057 33.3599 33.5318 33.8462 32.3077 33.8462H28.0646L29.4185 35.2C29.92 35.7015 30.2831 36.2923 30.5077 36.9231H32.3077C34.3478 36.9231 36.3044 36.1126 37.747 34.6701C39.1896 33.2275 40 31.2709 40 29.2308V7.69231ZM10.7692 9.23077H6.15385V7.69231C6.15385 6.46823 6.64011 5.29429 7.50566 4.42874C8.37121 3.56319 9.54515 3.07692 10.7692 3.07692H32.3077C33.5318 3.07692 34.7057 3.56319 35.5713 4.42874C36.4368 5.29429 36.9231 6.46823 36.9231 7.69231V9.23077H10.7692ZM17.2185 31.7015C15.038 33.332 12.3208 34.0761 9.61383 33.784C6.90685 33.4919 4.41099 32.1853 2.62854 30.1271C0.846095 28.069 -0.0906185 25.4121 0.00691875 22.6911C0.104456 19.9702 1.229 17.3872 3.15424 15.4619C5.07948 13.5367 7.66249 12.4122 10.3834 12.3146C13.1044 12.2171 15.7613 13.1538 17.8194 14.9362C19.8776 16.7187 21.1842 19.2145 21.4763 21.9215C21.7684 24.6285 21.0244 27.3457 19.3938 29.5262L27.24 37.3723C27.5289 37.6608 27.6913 38.0522 27.6916 38.4605C27.6919 38.8687 27.53 39.2604 27.2415 39.5492C26.9531 39.8381 26.5616 40.0006 26.1534 40.0009C25.7451 40.0011 25.3535 39.8392 25.0646 39.5508L17.2185 31.7046V31.7015ZM18.4615 23.0769C18.4615 21.0368 17.6511 19.0802 16.2085 17.6376C14.7659 16.1951 12.8094 15.3846 10.7692 15.3846C8.7291 15.3846 6.77253 16.1951 5.32995 17.6376C3.88736 19.0802 3.07692 21.0368 3.07692 23.0769C3.07692 25.1171 3.88736 27.0736 5.32995 28.5162C6.77253 29.9588 8.7291 30.7692 10.7692 30.7692C12.8094 30.7692 14.7659 29.9588 16.2085 28.5162C17.6511 27.0736 18.4615 25.1171 18.4615 23.0769V23.0769Z" fill="black"/>
</g>
<defs>
<clipPath id="clip0">
<rect width="40" height="40" fill="white"/>
</clipPath>
</defs>
</svg>
