<svg width="40" height="40" viewBox="0 0 40 40" fill="none" xmlns="http://www.w3.org/2000/svg">
<g clip-path="url(#clip0)">
<path d="M36.1102 17.7862C38.2574 17.7862 40 19.5266 40 21.6759V36.1236C40 37.1552 39.5902 38.1446 38.8607 38.8741C38.1312 39.6035 37.1419 40.0133 36.1102 40.0133H26.108C25.0764 40.0133 24.087 39.6035 23.3576 38.8741C22.6281 38.1446 22.2183 37.1552 22.2183 36.1236V21.6759C22.2183 19.5266 23.9609 17.7862 26.108 17.7862H36.1102V17.7862ZM13.9231 26.7037C16.0725 26.7037 17.8128 28.4463 17.8128 30.5935V36.1236C17.8128 37.1552 17.403 38.1446 16.6736 38.8741C15.9441 39.6035 14.9547 40.0133 13.9231 40.0133H3.88975C2.85813 40.0133 1.86875 39.6035 1.13928 38.8741C0.409812 38.1446 0 37.1552 0 36.1236V30.5935C0 28.4463 1.74039 26.7037 3.88975 26.7037H13.9231ZM36.1102 21.1202H26.108C25.9606 21.1202 25.8193 21.1788 25.7151 21.283C25.6109 21.3872 25.5523 21.5286 25.5523 21.6759V36.1236C25.5523 36.4303 25.8013 36.6793 26.108 36.6793H36.1102C36.2576 36.6793 36.399 36.6207 36.5032 36.5165C36.6074 36.4123 36.6659 36.271 36.6659 36.1236V21.6759C36.6659 21.5286 36.6074 21.3872 36.5032 21.283C36.399 21.1788 36.2576 21.1202 36.1102 21.1202ZM13.9231 30.0378H3.88975C3.74238 30.0378 3.60104 30.0963 3.49683 30.2005C3.39262 30.3047 3.33407 30.4461 3.33407 30.5935V36.1236C3.33407 36.4303 3.58302 36.6793 3.88975 36.6793H13.9231C14.0705 36.6793 14.2118 36.6207 14.316 36.5165C14.4202 36.4123 14.4788 36.271 14.4788 36.1236V30.5935C14.4788 30.4461 14.4202 30.3047 14.316 30.2005C14.2118 30.0963 14.0705 30.0378 13.9231 30.0378ZM13.892 0C16.0391 0 17.7817 1.74261 17.7817 3.88975V18.3374C17.7816 19.314 17.4142 20.2547 16.7525 20.9729C16.0908 21.6911 15.1831 22.134 14.2098 22.2138L13.892 22.2272H3.88975C2.85813 22.2272 1.86875 21.8173 1.13928 21.0879C0.409812 20.3584 0 19.369 0 18.3374V3.88975C0 1.74261 1.74039 0 3.88975 0H13.892ZM13.892 3.33407H3.88975C3.74238 3.33407 3.60104 3.39262 3.49683 3.49683C3.39262 3.60104 3.33407 3.74238 3.33407 3.88975V18.3374C3.33407 18.6441 3.58302 18.8931 3.88975 18.8931H13.892L14.0187 18.8775C14.1406 18.849 14.2492 18.7801 14.3271 18.6821C14.405 18.5841 14.4474 18.4626 14.4477 18.3374V3.88975C14.4477 3.74238 14.3891 3.60104 14.2849 3.49683C14.1807 3.39262 14.0394 3.33407 13.892 3.33407ZM36.1102 0C38.2574 0 40 1.74261 40 3.88975V9.44654C40 10.4782 39.5902 11.4675 38.8607 12.197C38.1312 12.9265 37.1419 13.3363 36.1102 13.3363H26.108C25.0764 13.3363 24.087 12.9265 23.3576 12.197C22.6281 11.4675 22.2183 10.4782 22.2183 9.44654V3.88975C22.2183 1.74261 23.9609 0 26.108 0H36.1102ZM26.108 3.33407C25.9606 3.33407 25.8193 3.39262 25.7151 3.49683C25.6109 3.60104 25.5523 3.74238 25.5523 3.88975V9.44654C25.5523 9.75328 25.8013 10.0022 26.108 10.0022H36.1102C36.2576 10.0022 36.399 9.94368 36.5032 9.83947C36.6074 9.73526 36.6659 9.59392 36.6659 9.44654V3.88975C36.6659 3.74238 36.6074 3.60104 36.5032 3.49683C36.399 3.39262 36.2576 3.33407 36.1102 3.33407H26.108Z" fill="black"/>
</g>
<defs>
<clipPath id="clip0">
<rect width="40" height="40" fill="white"/>
</clipPath>
</defs>
</svg>
